<svg width="670" height="460" viewBox="0 0 670 460" fill="none" xmlns="http://www.w3.org/2000/svg">
<path d="M13.4463 445.989C14.5689 444.243 16.1347 442.175 18.1064 439.847L21.1582 442.432L24.2109 445.017C23.194 446.218 22.3573 447.27 21.6777 448.175L34.4316 445.711L35.9492 453.567L16.1855 457.384L16.25 457.652L12.3613 458.586L8.47168 459.521L0.758789 427.435L8.53809 425.566L13.4463 445.989ZM50.0283 415.348L52.5439 418.457C46.7859 423.114 41.8766 427.372 37.7324 431.192L32.3105 425.309C36.5908 421.363 41.6319 416.994 47.5137 412.238L50.0283 415.348ZM81.9219 391.823L84.1729 395.13C78.3713 399.078 73.0246 402.865 68.1074 406.48L63.3691 400.034C68.3671 396.36 73.7929 392.517 79.6719 388.516L81.9219 391.823ZM440.594 388.314L441.286 392.254C434.257 393.489 427.297 394.256 420.45 394.527L420.292 390.53L420.135 386.533C426.6 386.278 433.202 385.551 439.902 384.374L440.594 388.314ZM381.236 381.615C387.387 383.589 393.793 384.967 400.406 385.774L399.922 389.743L399.438 393.714C392.353 392.85 385.451 391.369 378.792 389.233L380.015 385.424L381.236 381.615ZM479.702 376.904L481.197 380.614C474.647 383.253 468.091 385.545 461.565 387.468L460.436 383.631L459.305 379.794C465.571 377.948 471.883 375.741 478.207 373.193L479.702 376.904ZM117.392 373.929C111.487 377.48 105.899 380.942 100.616 384.309L96.3174 377.563C101.66 374.158 107.306 370.659 113.269 367.073L117.392 373.929ZM347.166 362.644C349.764 364.52 352.424 366.448 355.148 368.43C357.808 370.364 360.546 372.136 363.356 373.748L361.366 377.218L359.375 380.687C356.316 378.932 353.337 377.004 350.443 374.9C347.724 372.922 345.071 370.999 342.482 369.129L344.824 365.886L347.166 362.644ZM516.142 358.567L518.211 361.99C512.217 365.612 506.169 368.966 500.095 372.033L498.292 368.463L496.488 364.893C502.376 361.919 508.246 358.664 514.072 355.143L516.142 358.567ZM149.695 350.836L151.624 354.34C148.833 355.876 145.97 357.462 143.033 359.098C140.105 360.729 137.239 362.347 134.435 363.948L132.451 360.474L130.469 357C133.298 355.385 136.187 353.755 139.14 352.11C142.087 350.468 144.962 348.875 147.768 347.331L149.695 350.836ZM314.831 340.078C319.988 343.479 325.403 347.188 331.128 351.204L328.831 354.48L326.534 357.754C320.853 353.768 315.504 350.105 310.428 346.758L312.629 343.418L314.831 340.078ZM552.044 338.201C546.622 342.579 541.108 346.74 535.525 350.671L530.92 344.13C536.357 340.301 541.731 336.246 547.019 331.977L552.044 338.201ZM186.249 336.261C180.785 338.882 175.003 341.812 168.839 345.054L166.978 341.514L165.115 337.974C171.343 334.699 177.215 331.722 182.79 329.048L186.249 336.261ZM280.123 320.354C285.827 322.876 291.725 325.945 297.943 329.552L295.937 333.013L293.929 336.473C287.9 332.976 282.267 330.048 276.889 327.67L280.123 320.354ZM221.105 318.599L222.079 322.478C216.403 323.903 210.412 325.889 203.949 328.447L202.477 324.728L201.005 321.008C207.718 318.352 214.046 316.247 220.131 314.719L221.105 318.599ZM579.598 307.524L582.479 310.299C577.667 315.291 572.73 320.106 567.688 324.73L564.984 321.781L562.281 318.833C567.202 314.32 572.02 309.621 576.718 304.747L579.598 307.524ZM240.374 311.77C247.284 311.563 254.029 312.239 260.865 313.803L259.082 321.602C252.891 320.186 246.825 319.581 240.614 319.767L240.494 315.768L240.374 311.77ZM606.068 276.467L609.267 278.87C605.115 284.395 600.806 289.771 596.358 294.989L590.271 289.799C594.613 284.705 598.819 279.457 602.871 274.065L606.068 276.467ZM628.483 242.366L631.96 244.344C628.544 250.346 624.937 256.226 621.158 261.972L617.816 259.774L614.475 257.576C618.161 251.972 621.678 246.238 625.007 240.388L628.483 242.366ZM646.227 205.633L649.94 207.119C647.374 213.531 644.582 219.843 641.583 226.044L637.982 224.303L634.381 222.562C637.301 216.524 640.018 210.382 642.514 204.147L646.227 205.633ZM658.562 166.75L662.456 167.668C660.869 174.405 659.021 181.063 656.933 187.633L653.121 186.422L649.309 185.21C651.337 178.829 653.13 172.367 654.669 165.833L658.562 166.75ZM664.777 126.166L668.766 126.477C668.498 129.913 668.165 133.432 667.765 137.035C667.382 140.481 666.928 143.913 666.406 147.327L658.498 146.118C659.004 142.811 659.443 139.488 659.813 136.153C660.204 132.633 660.53 129.201 660.79 125.856L664.777 126.166ZM668.511 84.469C669.22 91.0606 669.591 98.0955 669.601 105.593L665.601 105.598L661.601 105.602C661.592 98.3615 661.233 91.6107 660.557 85.3245L664.533 84.8967L668.511 84.469ZM423.388 70.5979L424.281 74.4963C417.612 76.0248 411.264 76.8184 405.157 77.0598L405 73.0627L404.842 69.0657C410.468 68.8432 416.322 68.1129 422.494 66.6985L423.388 70.5979ZM369.085 64.7854C375.008 66.182 380.911 67.3969 386.955 68.1868L386.437 72.1526L385.918 76.1194C379.501 75.2807 373.309 74.0003 367.249 72.5715L368.167 68.678L369.085 64.7854ZM276.854 64.7239L278.119 68.5188C275.358 69.4392 272.528 70.4868 269.626 71.6741C266.452 72.9724 263.358 73.8828 260.346 74.4475L259.608 70.5168L258.872 66.5852C261.325 66.1252 263.9 65.3735 266.598 64.2698C269.659 63.0172 272.655 61.9071 275.589 60.929L276.854 64.7239ZM229.076 57.8557C233.285 61.2249 238.004 64.0733 243.232 65.6995L242.044 69.5188L240.856 73.3381C234.412 71.334 228.819 67.8967 224.077 64.1008L226.577 60.9778L229.076 57.8557ZM457.812 56.9045L459.755 60.4016C453.797 63.7104 448.087 66.4422 442.589 68.6702L441.087 64.9622L439.584 61.2551C444.759 59.1582 450.176 56.5703 455.871 53.4075L457.812 56.9045ZM332.548 56.4241C338.926 57.4426 345.073 58.8293 351.07 60.3L349.164 68.0696C343.253 66.6201 337.349 65.2917 331.286 64.3235L331.917 60.3743L332.548 56.4241ZM657.445 43.4202C660.401 49.4287 662.867 56.1258 664.787 63.552L660.914 64.553L657.042 65.5549C655.245 58.6065 652.961 52.4265 650.268 46.9504L653.856 45.1848L657.445 43.4202ZM313.444 54.7502L313.41 58.7502L313.375 62.7502C307.696 62.7013 301.786 63.1084 295.559 64.1438L294.902 60.1985L294.246 56.2522C300.954 55.137 307.327 54.6975 313.444 54.7502ZM211.162 38.9495C212.729 40.6142 214.839 43.2382 217.062 45.843L214.021 48.4407L210.979 51.0374C208.473 48.1021 206.735 45.9177 205.337 44.4319L208.25 41.6907L211.162 38.9495ZM491.95 39.1653C489.079 41.0396 486.307 42.9597 483.65 44.9133C481.019 46.8482 478.434 48.6784 475.894 50.4075L473.643 47.0999L471.393 43.7932C473.85 42.1209 476.356 40.3476 478.912 38.468C481.692 36.4239 484.586 34.419 487.577 32.4661L491.95 39.1653ZM628.505 11.5803C634.68 15.1844 640.367 19.7549 645.415 25.3938L639.454 30.7297C634.974 25.7249 629.94 21.6813 624.472 18.4895L626.488 15.0354L628.505 11.5803ZM527.931 20.55C521.609 23.0598 515.424 25.8901 509.477 28.9651L507.64 25.4124L505.803 21.8586C511.979 18.6654 518.405 15.7246 524.979 13.1145L527.931 20.55ZM566.275 5.97388L566.836 9.93481C560.3 10.86 553.693 12.2686 547.116 14.0862L546.051 10.2307L544.985 6.37427C551.863 4.47376 558.807 2.99168 565.715 2.01392L566.275 5.97388ZM587 0.698486C594.309 0.878115 601.47 1.76382 608.338 3.47876L607.368 7.35962L606.399 11.2405C600.17 9.68495 593.6 8.86356 586.804 8.69653L586.902 4.69751L587 0.698486Z" fill="#367D6C"/>
</svg>
