<svg width="34" height="36" viewBox="0 0 34 36" fill="none" xmlns="http://www.w3.org/2000/svg">
<path d="M11.4364 35.4376C10.0237 35.4376 8.64638 35.1695 7.34252 34.6405C5.99164 34.0926 4.78027 33.2885 3.74185 32.2505C2.70343 31.2124 1.89935 30.0007 1.35177 28.6498C0.822843 27.3459 0.554688 25.9686 0.554688 24.556C0.554688 23.1433 0.822843 21.7656 1.35177 20.4617C1.89935 19.1108 2.70382 17.8995 3.74185 16.8611L3.74457 16.8583L18.0831 2.58858C18.8223 1.84979 19.6851 1.27695 20.6473 0.88676C21.5757 0.510176 22.5563 0.31897 23.562 0.31897C24.5674 0.31897 25.5479 0.510176 26.4768 0.88676C27.439 1.27695 28.3014 1.84979 29.041 2.58858C29.7801 3.32775 30.3526 4.19051 30.7432 5.15276C31.1198 6.08159 31.3106 7.06211 31.3106 8.06789C31.3106 9.07366 31.1198 10.0542 30.7432 10.983C30.3526 11.9453 29.7801 12.8076 29.041 13.5472L14.7339 27.8535C14.2889 28.2985 13.7701 28.6428 13.1903 28.8783C12.6314 29.1049 12.0411 29.2199 11.436 29.2199C10.8309 29.2199 10.2409 29.1049 9.68169 28.8783C9.10224 28.6432 8.58303 28.2985 8.13805 27.8535C7.69307 27.4089 7.34874 26.8897 7.11362 26.3102C6.88782 25.751 6.77279 25.1611 6.77279 24.556C6.77279 23.9509 6.88782 23.3605 7.11439 22.8017C7.34913 22.2222 7.69384 21.7026 8.13882 21.2576L21.3294 8.0675C21.9364 7.46046 22.9208 7.46046 23.5278 8.0675C24.1349 8.67454 24.1349 9.65894 23.5278 10.266L10.3373 23.4561C10.0435 23.7503 9.88184 24.1409 9.88184 24.556C9.88184 24.971 10.0435 25.3612 10.3373 25.655C10.6307 25.9488 11.0213 26.1105 11.4364 26.1105C11.8514 26.1105 12.242 25.9488 12.5354 25.655L26.8425 11.3483C27.7188 10.472 28.2015 9.30684 28.2015 8.06789C28.2015 6.82893 27.7188 5.66343 26.8425 4.78745C25.9665 3.9107 24.8014 3.42802 23.562 3.42802C22.3227 3.42802 21.1572 3.9107 20.2816 4.78706L20.2789 4.78978L5.93917 19.0607C5.19728 19.803 4.62288 20.6677 4.2323 21.6303C3.85533 22.5611 3.66374 23.5459 3.66374 24.556C3.66374 25.566 3.85533 26.5504 4.23269 27.4812C4.62366 28.4446 5.19766 29.3093 5.94073 30.0516C6.68301 30.7939 7.54811 31.3687 8.51075 31.7592C9.44191 32.137 10.4263 32.3286 11.4364 32.3286C12.4464 32.3286 13.4312 32.137 14.362 31.7592C15.3254 31.3687 16.1897 30.7943 16.9324 30.0516L31.2224 15.7616C31.8294 15.1546 32.8138 15.1546 33.4205 15.7616C34.0275 16.3687 34.0275 17.3531 33.4205 17.9601L19.1305 32.2501C18.0924 33.2881 16.8811 34.0922 15.5298 34.6402C14.2267 35.1695 12.849 35.4376 11.4364 35.4376Z" fill="#EAEAEA" fill-opacity="0.13"/>
</svg>
