<svg width="39" height="39" viewBox="0 0 39 39" fill="none" xmlns="http://www.w3.org/2000/svg">
<path d="M19.3467 0.429321C8.80543 0.429321 0.219055 9.0157 0.219055 19.5569C0.219055 30.0982 8.80543 38.6845 19.3467 38.6845C29.8879 38.6845 38.4743 30.0982 38.4743 19.5569C38.4743 9.0157 29.8879 0.429321 19.3467 0.429321ZM19.3467 4.25484C27.8204 4.25484 34.6487 11.0832 34.6487 19.5569C34.6487 28.0307 27.8204 34.859 19.3467 34.859C10.8729 34.859 4.04458 28.0307 4.04458 19.5569C4.04458 11.0832 10.8729 4.25484 19.3467 4.25484ZM17.4339 9.99312V13.8186H21.2594V9.99312H17.4339ZM17.4339 17.6442V29.1207H21.2594V17.6442H17.4339Z" fill="#367D6C"/>
</svg>
