<svg width="35" height="29" viewBox="0 0 35 29" fill="none" xmlns="http://www.w3.org/2000/svg">
<path d="M30.3988 25.5937C30.9753 23.8246 33.6766 6.19395 34.0105 2.71988C34.1114 1.66771 33.7788 0.968531 33.1274 0.656424C32.3396 0.277533 31.1729 0.466981 29.8196 0.954904C27.9633 1.6241 4.23221 11.7001 2.86111 12.2835C1.56089 12.8354 0.331543 13.4378 0.331543 14.3101C0.331543 14.9234 0.695442 15.2682 1.69855 15.6267C2.74254 15.9988 5.3716 16.7961 6.92396 17.224C8.41908 17.637 10.1214 17.2785 11.0754 16.6857C12.0867 16.0574 23.7573 8.24786 24.5955 7.56368C25.4324 6.8795 26.1002 7.75585 25.416 8.4414C24.7318 9.12558 16.7206 16.901 15.6643 17.9777C14.3818 19.2847 15.2923 20.6395 16.1523 21.1819C17.1349 21.8007 24.2016 26.5409 25.2661 27.3014C26.3305 28.0619 27.4099 28.4067 28.3981 28.4067C29.3862 28.4067 29.9068 27.1052 30.3988 25.5937Z" fill="#367D6C"/>
</svg>
